<svg xmlns="http://www.w3.org/2000/svg" version="1.1" xmlns:xlink="http://www.w3.org/1999/xlink" viewBox="0 0 12.517930894761804 4.9470554021782"><g transform="matrix(0.7726790888460275,0,0,0.7726790888460275,4.88776154936715,1.5279533176674365)"><rect width="13.973346419506804" height="13.973346419506804" x="-5.212063390738366" y="-5.762912405207947" fill="#ffffff"></rect><g transform="matrix(1,0,0,1,0,0)" clip-path="url(#SvgjsClipPath93268)"><g clip-path="url(#b6b6453b3-675f-4837-96e6-e3bafea4061c6ad240d8-50db-471b-8ef0-eab903184aba)"><path d=" M -3.756647865993366 1.2237608045454544 C -3.756647865993366 2.1879480623625076 -2.975015185093819 2.9695807432620542 -2.010827927276766 2.9695807432620542 C -1.0466326808995472 2.9695807432620542 -0.2650000000000001 2.1879480623625076 -0.2650000000000001 1.2237608045454544 C -0.2650000000000001 0.2595735467284016 -1.0466326808995468 -0.5220591341711456 -2.010827927276766 -0.5220591341711456 C -2.975015185093819 -0.5220591341711456 -3.756647865993366 0.2595735467284016 -3.756647865993366 1.2237608045454544" fill="#2c2c2d" transform="matrix(1,0,0,1,0,0)" fill-rule="nonzero"></path></g><g clip-path="url(#b6b6453b3-675f-4837-96e6-e3bafea4061c6ad240d8-50db-471b-8ef0-eab903184aba)"><path d=" M -3.613389016533291 1.2253824822591888 C -3.613389016533291 2.1110342050825435 -2.895425160158185 2.829006050017816 -2.0097654487746643 2.829006050017816 C -1.12411372595131 2.829006050017816 -0.4061418810160382 2.1110342050825435 -0.4061418810160382 1.2253824822591888 C -0.4061418810160382 0.33972277087566827 -1.12411372595131 -0.37824108549943775 -2.0097654487746643 -0.37824108549943775 C -2.895425160158185 -0.37824108549943775 -3.613389016533291 0.33972277087566827 -3.613389016533291 1.2253824822591888" fill="#444549" transform="matrix(1,0,0,1,0,0)" fill-rule="nonzero"></path></g><g clip-path="url(#b6b6453b3-675f-4837-96e6-e3bafea4061c6ad240d8-50db-471b-8ef0-eab903184aba)"><path d=" M -2.2948052640640713 2.0261078219559017 C -2.381521084667937 2.1098518981779484 -2.416455058274634 2.2143582422718926 -2.3728295312071346 2.259525561451465 C -2.3292119926998014 2.304700869191203 -2.223547307381761 2.2734336447007815 -2.136831486777896 2.1896975570389006 C -2.0501156661740314 2.105953480816854 -2.027084647214939 2.0053135998433396 -2.075351527738988 1.9399831548043336 C -2.112666092275207 1.8894635003134224 -2.2080894434602065 1.942363745733855 -2.2948052640640713 2.0261078219559017 M -2.7302057588012856 1.6871691912252902 C -2.841214790870499 1.7866986623357053 -2.906665064311998 1.8900386766453874 -2.8527023403894636 1.945910666447638 C -2.80664030247128 1.9936103591998884 -2.690870088543024 1.984886851498422 -2.5912207890301167 1.9170080557664049 C -2.63951962379483 1.9853581765482264 -2.6575977354508913 2.0476609572842506 -2.621058061250792 2.085494778231271 C -2.567103325888424 2.1413667680335218 -2.4161435044281534 2.12308095381314 -2.308889095637044 2.019525248378971 C -2.2016426754061005 1.9159296001439712 -2.1963702256964233 1.8003830659003688 -2.2234754103402654 1.7469395983886358 C -2.270088658909916 1.6549912708759238 -2.3689950223273692 1.6990881229932282 -2.4651373439273243 1.7815300639081877 C -2.418236507191692 1.7039291904539318 -2.4072043056021997 1.628069823115903 -2.4452298519932083 1.5886862214966442 C -2.4991845873555762 1.5328142316943936 -2.5794855941460004 1.5520426960143845 -2.7302057588012856 1.6871691912252902 M -2.974160409156038 1.442998849746051 C -3.095370832557461 1.560047233300895 -3.1388525655419692 1.6902927182502654 -3.0784191078848306 1.7528671100319402 C -3.017977661667526 1.8154574789339466 -2.92102050693062 1.7787420564101915 -2.79257244801864 1.6697141872621906 C -2.6600422348617423 1.5572432486825667 -2.5924749929762063 1.426182930596246 -2.6452713871144784 1.3443960516149127 C -2.7143165126307576 1.2374292309897856 -2.8529659628749475 1.3259504661912074 -2.974160409156038 1.442998849746051 M -0.6427230903374079 0.2695352812556263 C -0.6427230903374079 0.2695352812556263 -1.0046687743466127 0.5543993482213774 -1.3596084910900794 0.5142168905855005 C -1.3596084910900794 0.5142168905855005 -1.6207784886029462 0.4539352155715193 -1.7011513924348654 0.40705834451638523 C -1.7011513924348654 0.40705834451638523 -1.957983601777497 0.25520380431750245 -2.145483097437867 0.4226200597201004 L -2.356125451899656 0.6375283053106282 C -2.356125451899656 0.6375283053106282 -2.491499592475713 0.7037135262874152 -2.493384892674931 0.9243735351975915 C -2.493384892674931 0.9243735351975915 -2.4923863226541587 0.9522615987377199 -2.512477551472097 1.0125193080712025 C -2.512477551472097 1.0125193080712025 -2.5572773968840252 1.1501542111742882 -2.386881408539442 1.1416304174769758 C -2.386881408539442 1.1416304174769758 -2.261708659295595 1.1440589397674938 -2.209383590207127 0.9499289391691956 C -2.209383590207127 0.9499289391691956 -2.019104075608927 0.7462605977324808 -1.8946103539792047 0.7123172055863893 C -1.8946103539792047 0.7123172055863893 -1.8668261417212366 0.7038812860509049 -1.8467269243431323 0.7239805034290097 C -1.8467269243431323 0.7239805034290097 -1.5483781678168724 1.0031487269962753 -1.0731387235309269 1.491609238357246 L -0.9310062610542826 1.3446516855402304 L -0.747061674667862 0.942531532455315 L -0.4901895225243993 0.9555928283270163 L -0.46842069607156356 0.9512390630364491 C -0.4645861871917978 0.9052569107199269 -0.52256715687792 0.8755314783415777 -0.52256715687792 0.828534778883951" fill="#ffffff" transform="matrix(1,0,0,1,0,0)" fill-rule="nonzero"></path></g><g clip-path="url(#b6b6453b3-675f-4837-96e6-e3bafea4061c6ad240d8-50db-471b-8ef0-eab903184aba)"><path d=" M -0.6106250555897033 0.29053720593250854 L -0.8594447390856579 0.5099030680957639 L -0.9220830393486619 1.3738179187069472 C -0.9220830393486619 1.3738179187069472 -0.48607541403881793 1.010306476905171 -0.4134833678087553 0.9636452969745237 C -0.4134833678087553 0.9636452969745237 -0.5048005990683397 0.526710998685403 -0.6681506773463526 0.3279316560703891" fill="#c9d7e3" transform="matrix(1,0,0,1,0,0)" fill-rule="nonzero"></path></g><g clip-path="url(#b6b6453b3-675f-4837-96e6-e3bafea4061c6ad240d8-50db-471b-8ef0-eab903184aba)"><path d=" M -1.8650686584846774 0.7232695215742195 C -2.018089528467822 0.7071645842792043 -2.209798995335768 0.9515426283227637 -2.209798995335768 0.9515426283227637 C -2.2887659125784405 1.1356949172735051 -2.4171979943700883 1.1330826580991649 -2.4171979943700883 1.1330826580991649 C -2.4171979943700883 1.1330826580991649 -2.4870100216623205 1.1491796068340143 -2.5237014785055774 1.0686389432386048 L -2.5025238055050387 0.9647397297172902 C -2.4806830820107075 0.7160159089433298 -2.381273439302785 0.6608628895560351 -2.381273439302785 0.6608628895560351 L -2.2613172198474523 0.5138574053780225 L -3.0872544554286234 0.3207339633606626 L -3.3058614043760923 0.16540439948949226 L -3.571928389270826 0.8864518400887433 L -3.641069377509099 0.8691725844492997 L -3.524875769892036 0.9588202066341525 C -3.295364436317734 1.2062339035408594 -3.244093857171202 1.2409921288239012 -3.243510692279071 1.240808391940079 C -3.2421126942499896 1.240353044010607 -3.1937659281242787 1.3454984729178454 -3.037286011589179 1.4888931279007451 C -3.0157568419413283 1.4624430051905293 -2.9896901701190886 1.4367837499367646 -2.959453469890104 1.4135050856125209 C -2.6645557713556327 1.1865101484905654 -2.637186964226306 1.3594704646484912 -2.6376503007159444 1.3689928283665758 C -2.6402945141309493 1.4232910718160894 -2.6395356009151625 1.5736517512638968 -2.7630307525241125 1.668699640121086 C -2.775908311511992 1.6786134432873134 -2.789097424346352 1.6872171225862873 -2.802294525740879 1.6954772937981155 C -2.793874583325727 1.7025791237858483 -2.7858221146782194 1.7095371596905897 -2.7772823438605747 1.7166549667986541 C -2.7569217937402883 1.690799264748239 -2.733413468739272 1.6675861356091075 -2.707302556804853 1.647553921361212 C -2.6039066225740077 1.567963896425578 -2.484014311600004 1.5502852127778257 -2.4395340085947232 1.6080824455801253 C -2.3950457170292765 1.6658796783824252 -2.4428013297026903 1.7772561842192824 -2.5461972639335357 1.8568462091549165 C -2.555935318776107 1.8643474671509583 -2.565897053303331 1.8707383152839006 -2.5758507992703894 1.877121174856677 C -2.5702348414735665 1.8813790774252501 -2.5644910667140843 1.8853973231888381 -2.558851143236762 1.88961528295658 C -2.539846358601424 1.86540994565306 -2.528238980679967 1.780994830377054 -2.500566608264325 1.7596973289740228 C -2.397162685473314 1.6801073040383887 -2.2603985354283416 1.6734288677394633 -2.215910243862895 1.7312261005417633 C -2.1714299408576143 1.7890233333440633 -2.2243541519585452 1.9502005232568762 -2.327758074749557 2.029766582512012 C -2.332822821894914 2.0336889655536052 -2.338063317363927 2.0367405955370854 -2.3431919729906134 2.0403354476118656 C -2.3347720305754613 2.0457516914045346 -2.326408008081473 2.050800461429559 -2.3179960542264872 2.0561048653799014 C -2.3049267697946196 2.041701491400282 -2.2904994301345014 2.0276416255078082 -2.2737074766651952 2.014732112279264 C -2.1867280335758457 1.9477640124061915 -2.0858724614778454 1.9329132790572663 -2.048454045659466 1.981523667668461 C -2.0146943903971968 2.02538086298078 -2.044467754136543 2.1057298011322008 -2.1143916212711016 2.1702294359139245 C -2.104460379108671 2.1750698367276624 -2.0944767505052333 2.179802007447403 -2.0844425092080954 2.1844251073292247 C -2.082389449245391 2.1822522189640225 -2.0657732440997405 2.195401388997552 -2.0657732440997405 2.195401388997552 C -1.7959596244870695 2.3468165583872946 -1.7583335061043697 2.1228333084479885 -1.7583335061043697 2.1228333084479885 C -1.4664395061923816 2.252759250990712 -1.4850688284999096 1.9675037445768182 -1.4850688284999096 1.9675037445768182 C -1.206052387575801 2.0638697458614264 -1.2244979729995067 1.7947671081035454 -1.2244979729995067 1.7947671081035454 C -0.8937476164392271 1.7318651853550575 -1.0816385515477407 1.5152473878889676 -1.0816385515477407 1.5152473878889676 C -1.5764180140001578 1.0059047802536067 -1.8650686584846774 0.7232695215742195 -1.8650686584846774 0.7232695215742195" fill="#a1cce8" transform="matrix(1,0,0,1,0,0)" fill-rule="nonzero"></path></g><g clip-path="url(#b6b6453b3-675f-4837-96e6-e3bafea4061c6ad240d8-50db-471b-8ef0-eab903184aba)"><path d=" M -3.2383820366523843 0.06424526210517634 C -3.3769995326559097 0.20021055613353056 -3.8207480727667806 0.6572840146015866 -3.623885984591649 1.4055484796870068 L -3.480826849135729 1.3350254705399849 L -3.4625490234755127 1.2190874968482397 L -3.464066849907087 1.2124410147899796 L -3.0402737330913294 0.17787454190889596 Z" fill="#2c2c2d" transform="matrix(1,0,0,1,0,0)" fill-rule="nonzero"></path></g><g clip-path="url(#b6b6453b3-675f-4837-96e6-e3bafea4061c6ad240d8-50db-471b-8ef0-eab903184aba)"><path d=" M -3.4607835516787873 1.2517527193677433 L -3.2416253920798526 1.3229787218093887 L -2.844402226376804 0.3025200461817762 L -3.066300462112738 0.24636046821354285 C -3.066300462112738 0.24636046821354285 -3.316957514446914 0.4942854329708857 -3.4607835516787873 1.2517527193677433" fill="#ffffff" transform="matrix(1,0,0,1,0,0)" fill-rule="nonzero"></path></g><g clip-path="url(#b6b6453b3-675f-4837-96e6-e3bafea4061c6ad240d8-50db-471b-8ef0-eab903184aba)"><path d=" M -2.391498796315493 2.277523787505865 C -2.4099284046188663 2.2584950371900283 -2.4176693194198933 2.232723942093937 -2.4175574795775665 2.2067131901928607 C -2.4172059829302546 2.1752222860177857 -2.407268214083529 2.141310848112359 -2.3893658507511235 2.1073914216467657 C -2.4369936464618784 2.1307739372531698 -2.485875646118723 2.1422774638924666 -2.5295331274268875 2.1423972922949592 C -2.5728790548885705 2.1422854524526325 -2.6126461073958063 2.1311254339004817 -2.639703360678652 2.1035009928458375 C -2.657949232098203 2.0848876476586415 -2.6665848656378417 2.059971328500332 -2.6663691745133553 2.0353106432673393 C -2.6661934261896993 2.017008851926625 -2.6622550660277735 1.9985712550630854 -2.6553609386043613 1.9799259556352258 C -2.692939125626064 1.9944651351376699 -2.730333575763945 2.0017906448100553 -2.7645645560760186 2.001870530411717 C -2.806344725745131 2.001774667689723 -2.8449134942274394 1.9909501686645514 -2.87135562837749 1.9639248696223706 C -2.8892819573903936 1.9456710096426533 -2.8981093163740206 1.9213138896959752 -2.8978936252495338 1.8971884379941173 C -2.897582071403053 1.8596342166529132 -2.8802309187221136 1.8223755720378576 -2.8538367159330607 1.7840304832402016 C -2.827210844899189 1.745757291484042 -2.790535365176264 1.7064535754664445 -2.747516968681394 1.667860841303637 C -2.64623001433442 1.5778217796706424 -2.5755552225442404 1.534475852208959 -2.511247313206505 1.5333814194661923 C -2.47802289147537 1.5330858427400438 -2.4483453904580177 1.547648987922987 -2.4265925411255145 1.57065604120158 C -2.4053110168428153 1.5926325702187367 -2.3962599781745353 1.6224618538792464 -2.3963718180168616 1.6531539020377033 C -2.3964277379380254 1.6696023474198642 -2.3988163174277126 1.6866259691339902 -2.4032819225606064 1.7040170646157602 C -2.368691457041054 1.6833906022666878 -2.3340450716003387 1.6702494207933247 -2.2994625946409535 1.6696902215816922 C -2.2797228624703267 1.6696183245401968 -2.2597993934158778 1.6746910602457201 -2.2425361148967666 1.6859549300800314 C -2.225240882136991 1.6971708685533455 -2.211077164962357 1.7139867877031505 -2.2003565172193458 1.7352123920646867 C -2.1896119037958357 1.7565178820278837 -2.183796231994858 1.7830079475389313 -2.183748300633861 1.8131248193654232 C -2.1837323235135284 1.8472279827148381 -2.191465249754389 1.886068362242797 -2.2097830182154357 1.9260910486753504 C -2.1779565945133816 1.9072220695628368 -2.147424317558248 1.8946161216206079 -2.116931983403946 1.8943125563342926 C -2.0938130902830263 1.8938332427243223 -2.069224302091529 1.9039627370150365 -2.054509374265429 1.9245732222437764 C -2.034386191206826 1.951726338248616 -2.0245762393227587 1.984343629407122 -2.0246481363642546 2.0180074219473974 C -2.0248398618082426 2.0821475715216424 -2.058375837385859 2.1498106761291726 -2.1188252721633303 2.208350845026927 C -2.1825420280487684 2.2692716048542025 -2.254662749229025 2.305547656568818 -2.3166539761185687 2.306130821460949 L -2.317189209649703 2.306130821460949 C -2.3448296278246796 2.306130821460949 -2.3720306751905165 2.297710879045797 -2.391498796315493 2.277523787505865 M -2.3657037355389035 2.2067131901928607 C -2.365599884256743 2.223361349579176 -2.361278073206841 2.234113951562852 -2.3541842317792745 2.241503369716567 C -2.3466590081027343 2.249260261637926 -2.335027664500779 2.254141271899461 -2.3166539761185687 2.254277077422286 C -2.276159964636211 2.2548522537542506 -2.210717679754879 2.2255422265045426 -2.1548456899526283 2.1710362804907084 C -2.101689810606878 2.119821621265339 -2.0763021663987633 2.063262615288797 -2.076493891842752 2.0180074219473974 C -2.0765498117639147 1.9940896728098596 -2.0830764654196825 1.9732555078964666 -2.0962176468930456 1.9553771102445596 C -2.101633890685714 1.948722639626133 -2.105628170768804 1.9466376254227606 -2.116931983403946 1.9461663003729561 C -2.1319664536366933 1.945854746526475 -2.1576416860107903 1.9547060711906008 -2.186072971642219 1.972336823477356 C -2.2146001199956413 1.9897998160006218 -2.2462268296935415 2.0151874602087365 -2.2767990494495054 2.044745132823596 C -2.3347959962559597 2.100089877654879 -2.366398740273361 2.166530732556984 -2.3657037355389035 2.2067131901928607 M -2.326903298811776 2.000863971830779 C -2.257882138975995 1.934127540202525 -2.235649976033521 1.8640998217858065 -2.2356100332326903 1.8131248193654228 C -2.235562101871693 1.7899340292030073 -2.2403712150917325 1.7707774619245122 -2.2466102805815176 1.7586588161524195 C -2.2542233784198857 1.7437042315213338 -2.2624755610715477 1.7348529068572085 -2.2707596979638747 1.7294606287450378 C -2.279107743337531 1.724124270554031 -2.2880069993626537 1.7216158626618507 -2.2994625946409535 1.7215439656203553 C -2.3347001335339654 1.7205613727199154 -2.39225770953128 1.7523877964219694 -2.4482575162961897 1.8012058875974852 L -2.4873295640689674 1.7681012942688423 C -2.461302835047559 1.7252666346577943 -2.4480578022920354 1.6835903162708425 -2.448217573495359 1.6531539020377033 C -2.448329413337685 1.6317765150330104 -2.453977325375173 1.6170056672857465 -2.4638831399812346 1.6067004246713763 C -2.4788616902928187 1.5916499773182964 -2.492034826006847 1.5855467173513365 -2.511247313206505 1.5852591291853542 C -2.5485459006223916 1.5841567078824217 -2.6154101492133037 1.6182039513106732 -2.7128945489211773 1.7064535754664445 L -2.730221735921618 1.6871532141049577 L -2.7128945489211773 1.7064775411469433 C -2.7537560341711793 1.7430651467080396 -2.7879550602425884 1.7800441917172787 -2.811241713126998 1.8136121215355603 C -2.834760034256227 1.8471321199928443 -2.8463354579370193 1.8772569803795025 -2.846023904090538 1.8971884379941173 C -2.8458082129660514 1.9101778368243232 -2.8425329032979185 1.9188134703639617 -2.8340650295217693 1.9278964632729063 C -2.8219623608700095 1.9407820108209521 -2.7975493210021685 1.9500886834145499 -2.7645645560760186 1.9499928206925556 C -2.718965854647473 1.9501206376552145 -2.6596987267745966 1.932394022646465 -2.6058078998935574 1.8955667602803832 L -2.5700431160295776 1.9319706289576573 C -2.599409063200449 1.973047805332146 -2.614914858483001 2.0109615118808284 -2.6144994533543597 2.03531064326734 C -2.614299739350205 2.0493784977199794 -2.6108087385575853 2.0585014334297553 -2.602412761822932 2.067472586496373 C -2.589910665162863 2.0808214705340573 -2.5640437073447777 2.090671365218955 -2.5295331274268875 2.090543548256296 C -2.470138182591352 2.090759239380783 -2.389789244439931 2.061864617259716 -2.326903298811776 2.000863971830779 M -3.097088372993189 1.7708733246465065 C -3.1206546254834153 1.7465881017413247 -3.1315430329899163 1.7138909249811567 -3.131399238906925 1.6797957501919076 C -3.1306962456123015 1.6008607871899003 -3.0796573347105882 1.50943171608799 -2.9921826008909362 1.424337573197859 C -2.9499071404915207 1.383516030748688 -2.9053868946854093 1.3458180153244925 -2.861146248485114 1.3177222492200436 C -2.816833705243323 1.2897942428790847 -2.7728007616073485 1.2705817556794257 -2.7289435662950297 1.2703500874346063 C -2.6883057607296807 1.2696710598204815 -2.6485946281436084 1.2901936708873933 -2.6234945721014764 1.3303202086021069 C -2.6083402734662364 1.3536947356483442 -2.6013023519598333 1.380688080449861 -2.601342294760664 1.4083125215045054 C -2.602468681744095 1.4999812494114009 -2.671242196214724 1.5999181370902913 -2.7757964716696653 1.689485873673482 C -2.863966210223775 1.7635797692147857 -2.938004185843915 1.808363637506381 -3.0068495973560396 1.8092743333653254 L -3.0079360415386396 1.8092743333653254 C -3.0414001200747607 1.8092743333653254 -3.0732265437768147 1.7959733806886384 -3.097088372993189 1.7708733246465065 M -2.9561621831016383 1.4616361606137456 C -3.037797279439814 1.5398761188812955 -3.0802564767230516 1.6246187651241142 -3.0795534834284277 1.6797957501919076 C -3.079385723664938 1.7037694192506092 -3.07275521872701 1.7212483888942072 -3.0597738084569706 1.7348529068572085 C -3.043980425008436 1.7507661187082357 -3.028426698364887 1.7571170240403475 -3.006849597356039 1.7574046122063298 C -2.9631601618072105 1.7583153080652738 -2.8933481345149783 1.7219114393879997 -2.809348424367614 1.6499345122907334 C -2.7102583240663387 1.5666617611184912 -2.6520856289362285 1.4718295633857887 -2.6532120159196593 1.4083125215045054 C -2.6532679358408227 1.3891319885455111 -2.6577575066542147 1.3729391770886679 -2.667064179247813 1.3584559175073867 C -2.685629593074011 1.3308953849340717 -2.703555922086915 1.3228509048467303 -2.7289435662950297 1.3221958429131035 C -2.7564561675073476 1.3219402089877859 -2.7935869951597443 1.336063983361589 -2.8333540476669796 1.3614915703705346 C -2.8731610429750463 1.3867354204956575 -2.9155802974574527 1.42241233019781 -2.956146205981306 1.4616361606137451 L -2.974168397716204 1.4429988497460513 Z M -1.0917281030376236 1.5096873500133077 C -1.4479060466068479 1.143595603277856 -1.7046104389868204 0.8952073020308751 -1.8105866781513413 0.7939762676050637 C -1.845920079766348 0.7602405780232926 -1.8643816423103858 0.7429613223838492 -1.8644375622315492 0.742905402462686 L -1.8648210131195257 0.7425539058153741 L -1.8650526813643449 0.7423222375705549 C -1.8697339776217254 0.737672895553839 -1.874966484530572 0.736594439931405 -1.880654339368891 0.736490588649245 C -1.882866277015292 0.7364853562922262 -1.885072622340975 0.7367129525940261 -1.887236912945822 0.7371696162633701 L -1.887244901505988 0.7371776048235361 L -1.8877881235972882 0.7373213989065275 C -1.927754890108678 0.7479142296868799 -1.982644287010489 0.7828881460944086 -2.0328603762150856 0.8227590498838042 C -2.0833480764653327 0.8625820223122027 -2.130240924640799 0.9069824397158217 -2.1594471006083467 0.9359889016792151 C -2.1684510745105507 0.9449042664326719 -2.177343039276029 0.9539320473715671 -2.186120903003207 0.9630701206425498 C -2.2130343622030706 1.0585733574292207 -2.2588807089967675 1.1113537744471607 -2.3008206498692036 1.1385068904520002 C -2.3422253572105056 1.1654523038925195 -2.378006118194818 1.167441455373898 -2.3859467469999993 1.167545306656058 C -2.391186287149564 1.1677932804584958 -2.396430822666737 1.1679211309942117 -2.401676221967204 1.1679287575440347 C -2.45534336916359 1.1681124944278567 -2.4930573617081175 1.1528303788299579 -2.515848723862224 1.1278181969496537 C -2.5385602004146692 1.102885900671011 -2.5437447759625185 1.072713108923356 -2.54372081028202 1.049937723889582 C -2.543672878921023 1.0245341025611348 -2.5376015731947277 1.0060885171374294 -2.53707432822376 1.0043230453407035 C -2.519571392899663 0.9517822851277491 -2.5193237475345116 0.9265703892432908 -2.5193237475345116 0.9250525628117165 L -2.5193237475345116 0.9241578440731046 C -2.5184450059162318 0.8085314242278403 -2.4819133202762984 0.7304911799644451 -2.4445668014994153 0.6823441278428883 C -2.4139067075816234 0.6426649494974808 -2.3832466136638306 0.6230210800488487 -2.3719348124685222 0.6166062662354073 L -2.1633854607702725 0.4038389547694149 L -2.1627543645171445 0.40327176699761647 C -2.0908733001418724 0.33892391485905027 -2.0080878511397664 0.3178740588211707 -1.9339779784781308 0.31801785290416185 C -1.7992988426365315 0.31838532667180597 -1.6900153395632125 0.3838116344328061 -1.6880900965631636 0.3846584218104212 C -1.6533957797614511 0.40523695279849625 -1.5676305978173612 0.4327735196913127 -1.4933210111515711 0.45324021083706145 C -1.4475491940084964 0.4659098802047297 -1.4015371753289632 0.4776951998769301 -1.3553106457206505 0.48858958957240683 C -1.3334514525073153 0.49099469522174455 -1.3114760085963795 0.4921894766382613 -1.289484909951367 0.4921684645268487 C -1.0111554852015487 0.4928954235019707 -0.7351107886592585 0.3058752414515711 -0.6722647858319344 0.2592939471225857 C -0.6677044479025356 0.2559920303197035 -0.663200904515481 0.2526123753473949 -0.6587561305909273 0.2491564642717058 L -0.626698038644053 0.28989812111921454 C -0.6288629384490876 0.29082479409849116 -0.9458729715235394 0.5429996728642406 -1.2894849099513657 0.5440222085655115 C -1.3138902304832736 0.5440410940525553 -1.3382774865776321 0.5426942475600303 -1.3625323041108994 0.5399879856815917 L -1.3639622563806464 0.539820225918102 L -1.3654401400113891 0.5394767178309561 C -1.3656797968163743 0.5394207979097929 -1.4312339215400334 0.5242984535152175 -1.5071811630398901 0.5032006661163406 C -1.5835517982285543 0.4817833363108166 -1.6685500783966911 0.4557486187292418 -1.7143564823895576 0.42937039306052105 C -1.7143564823895576 0.4293863701808538 -1.715514823613653 0.4286833768862298 -1.7184066823938098 0.42710164197332645 C -1.7212745754934677 0.4255358841807555 -1.7256363293442014 0.4232271902927299 -1.7312842413816893 0.42044717135490006 C -1.7469307363970525 0.412751658579644 -1.7629607708052955 0.405861836738177 -1.779311465100754 0.39980473188549503 C -1.8197974880229444 0.3847143417315847 -1.8752700498168862 0.3698316541419946 -1.9339779784781306 0.36987159694282523 C -1.998661350143676 0.3700313681461489 -2.0664283060333664 0.38720677250343216 -2.1276286654664585 0.44144110747161647 L -2.34073149645943 0.6588657495144903 L -2.3446458909408574 0.6607670268340409 L -2.3446458909408574 0.6607750153942069 C -2.3447337651026854 0.660806969634872 -2.344949456227172 0.6609347865975306 -2.3452769871939854 0.6610945578008542 C -2.3459320491276126 0.6614620315684983 -2.3470424589907113 0.6620771507012939 -2.348536319741786 0.6629878465602383 C -2.3530560802785105 0.6657517905596222 -2.357429063707258 0.6687488840803002 -2.3616375584143183 0.6719669881870225 C -2.3727975769664695 0.6804348619631717 -2.388079692564369 0.694031391366007 -2.403529567925758 0.7140427345822837 C -2.4343574216070394 0.7541532951766647 -2.466447467794578 0.8195636258173324 -2.4674700034958486 0.9245892263220781 L -2.4674700034958486 0.9250525628117165 C -2.4674460378153498 0.9327854890525771 -2.4688520244045975 0.9636133427338589 -2.4878248547992707 1.0205557995983778 L -2.4878568090399353 1.0206836165610367 C -2.4879446832017633 1.0209392504863544 -2.488072500164422 1.0214265526564912 -2.4882562370482444 1.0221215573909488 C -2.488639687936221 1.0234796126191987 -2.489166932907189 1.0256445124242333 -2.489710154998489 1.0283686114409003 C -2.491122326551186 1.0354721769909403 -2.491847304394744 1.0426952034765777 -2.491875054803523 1.0499377238895813 C -2.491859077683191 1.065411564931469 -2.4882961798490753 1.0812608683011666 -2.477607486346729 1.0927963491811281 C -2.4669747127655457 1.1042679215797602 -2.4466358385824556 1.1158832880613831 -2.401676221967204 1.1160750135053716 C -2.3974023422782986 1.1160750135053716 -2.3928967943445745 1.1159551851028788 -2.3881196353651997 1.1157315054182255 L -2.3877202073568906 1.115699551177561 L -2.3866657174149553 1.115699551177561 C -2.3866657174149553 1.1156436312563975 -2.3803547548836743 1.1157155282978934 -2.369873763945648 1.113135223364218 C -2.3593847844474567 1.11053894131021 -2.3450053761483356 1.1054102856835235 -2.3291400956583055 1.095073088828489 C -2.2976092486824 1.0743347866370898 -2.258824789075604 1.0330019763372835 -2.234435714888262 0.9431626287084429 L -2.2327421401330323 0.9369315517788235 L -2.228340443481468 0.932226289840945 C -2.227964981153658 0.9318268618326357 -2.17994574599476 0.8804284657234447 -2.1157496764993518 0.8243248076763747 C -2.051274007398127 0.7684608064342902 -1.9728423236865884 0.7076279207688427 -1.9021675318964093 0.6875127262704055 L -1.9021675318964093 0.6875047377102395 C -1.9005298770623424 0.6870334126604349 -1.8925493054563305 0.6846528217309136 -1.880654339368891 0.6846368446105813 C -1.866890050202566 0.6845090276479224 -1.8459360568866803 0.688343536527688 -1.8287686410895632 0.7052712955198197 C -1.8192942087324757 0.7141545744246101 -1.5304198845633032 0.9851425123817092 -1.073202632012256 1.4543745594226891 L -0.9527431332664533 1.329808940751471 L -0.7633343717263665 0.915745890218119 L -0.4993923438358365 0.9291666712972984 C -0.503202887035104 0.9218651273054115 -0.5089945931555828 0.9134292077699273 -0.5163041257076357 0.9038029927696822 C -0.5294453071809992 0.8854452815078047 -0.5480906066088589 0.8623663311877154 -0.5484900346171679 0.8285427674441168 L -0.49666025625900323 0.8285427674441168 C -0.497051695707146 0.8401900881664046 -0.4885358905699997 0.8544975994240298 -0.47453194459868975 0.8730630132502284 C -0.46156651144898264 0.891276930429115 -0.44285730353979247 0.913509093371589 -0.44233804712899083 0.9468773091857159 C -0.44232716531718497 0.9490231743099717 -0.44240445324396616 0.9511685805533798 -0.4425697153738102 0.9533081001194896 L -0.44415145028671343 0.9728321411656287 L -0.4883201994455133 0.9816435230289238 L -0.7308209318500203 0.9693251632526767 L -0.9092933545226094 1.3594784532086572 L -1.0730828036097626 1.5288439172918031 Z" fill="#ffffff" transform="matrix(1,0,0,1,0,0)" fill-rule="nonzero"></path></g><g clip-path="url(#b6b6453b3-675f-4837-96e6-e3bafea4061c6ad240d8-50db-471b-8ef0-eab903184aba)"><path d=" M -2.562661686436029 1.6846448062127775 C -2.5289978938957534 1.683454510748017 -2.4868662275793296 1.6893580567108226 -2.4592817293255163 1.7079953675785164 C -2.437329165988858 1.722846100927442 -2.4268801292914968 1.7484973676210407 -2.409976335979864 1.770545793679693 C -2.381992409717741 1.807085467879792 -2.3426886937001443 1.8355007763908882 -2.3122363023466725 1.8717288967445067 C -2.295228657752879 1.8919719082056021 -2.2783328530014115 1.9145316021148902 -2.2566119579095734 1.929829694833121 C -2.214991559443784 1.9591477106429958 -2.170263611073352 1.928032268795731 -2.1279322307527737 1.9221526885134241 C -2.068081937987766 1.913836597380432 -2.0581681348215386 2.004786354872372 -2.092223366809957 2.039816191201064 C -2.1213416686156767 2.0697493261437336 -2.16587789154212 2.076539602284985 -2.2055490813273617 2.081324749824526 C -2.2577942648141676 2.0876277237956407 -2.2904115559726734 2.06528372101084 -2.329771191911434 2.033417354507955 C -2.3983689580584064 1.9778649071123513 -2.456565618869015 1.9880183670835638 -2.538791868659488 1.995735316204092 C -2.5844784442498616 2.0000331615734956 -2.621449500698935 1.975356499220171 -2.645471101118633 1.9351900187046267 C -2.7076939962529956 1.8311070682994899 -2.6523732171022107 1.7052473028813515 -2.534198446563936 1.6820645012791022" fill="#ffffff" transform="matrix(1,0,0,1,0,0)" fill-rule="nonzero"></path></g><g clip-path="url(#b6b6453b3-675f-4837-96e6-e3bafea4061c6ad240d8-50db-471b-8ef0-eab903184aba)"><path d=" M -0.3200811223457998 1.4245053329613484 C -0.23947655026906078 0.7633081851271051 -0.4826243560470287 0.3203265467921873 -0.6672799242882399 0.14401902392463306 L -0.9558027518101002 0.3006027917418933 L -0.6336400974284633 1.2901057967255654 L -0.6074935400045613 1.2926621359787422 L -0.5383525517662884 1.4050132461558735 Z" fill="#2c2c2d" transform="matrix(1,0,0,1,0,0)" fill-rule="nonzero"></path></g><g clip-path="url(#b6b6453b3-675f-4837-96e6-e3bafea4061c6ad240d8-50db-471b-8ef0-eab903184aba)"><path d=" M -0.6300452453536822 1.290097808165399 L -0.893835490601055 1.4058999763343194 L -1.25208247125332 0.4271655504546559 L -0.947526603477939 0.3287305120870071 C -0.947526603477939 0.3287305120870071 -0.7738712825855556 0.8003830928583386 -0.6300452453536822 1.290097808165399" fill="#a1cce8" transform="matrix(1,0,0,1,0,0)" fill-rule="nonzero"></path></g><g clip-path="url(#b6b6453b3-675f-4837-96e6-e3bafea4061c6ad240d8-50db-471b-8ef0-eab903184aba)"><path d=" M -0.5077403892094932 1.2657886195797183 C -0.4893427351467845 1.299244709555673 -0.45634199310030166 1.3164201139129563 -0.4340459216764989 1.3041576740578726 C -0.4117418616925286 1.2918872456426227 -0.40857839186672207 1.2548203264715554 -0.4269760459294307 1.221372225055767 C -0.4453736999921394 1.1879161350798124 -0.4783744420386222 1.1707407307225293 -0.5006785020225917 1.1830111591377792 C -0.5229665848862286 1.1952735989928627 -0.5261460318323676 1.23234051816393 -0.5077403892094932 1.2657886195797183" fill="#ffffff" transform="matrix(1,0,0,1,0,0)" fill-rule="nonzero"></path></g><g clip-path="url(#b6b6453b3-675f-4837-96e6-e3bafea4061c6ad240d8-50db-471b-8ef0-eab903184aba)"><path d=" M -3.650543809866186 1.208278974943401 C -3.657318108887105 1.2418229390811837 -3.6446802067042112 1.2726907355632966 -3.6223202267990784 1.277196283497021 C -3.5999522583337793 1.2817178085510779 -3.576322097362224 1.2581835103015166 -3.5695477983413046 1.224639546163734 C -3.5627734993203855 1.1910875934657852 -3.5754114015032794 1.1602277855438385 -3.5977793699685785 1.1557142490499481 C -3.6201393498737118 1.1512007125560573 -3.643761522285101 1.1747270222454522 -3.650543809866186 1.208278974943401" fill="#ffffff" transform="matrix(1,0,0,1,0,0)" fill-rule="nonzero"></path></g><g clip-path="url(#SvgjsClipPath932636ad240d8-50db-471b-8ef0-eab903184aba)"><path d=" M -1.1942908153986425 1.8073561705040517 L -1.5270782548012969 1.503151799375983" fill="none" transform="matrix(1,0,0,1,0,0)" fill-rule="nonzero" stroke-dasharray="none" stroke-miterlimit="10" stroke-linejoin="miter" stroke-linecap="butt" stroke-width="0.028766805158407963" stroke="#444549"></path></g><g clip-path="url(#SvgjsClipPath932636ad240d8-50db-471b-8ef0-eab903184aba)"><path d=" M -1.3549870963021453 2.09523863577874 L -1.7151832856349576 1.7546463730937294" fill="none" transform="matrix(1,0,0,1,0,0)" fill-rule="nonzero" stroke-dasharray="none" stroke-miterlimit="10" stroke-linejoin="miter" stroke-linecap="butt" stroke-width="0.028766805158407963" stroke="#444549"></path></g><g clip-path="url(#SvgjsClipPath932636ad240d8-50db-471b-8ef0-eab903184aba)"><path d=" M -1.6099765828601478 2.2560547453843074 L -1.9309089989761936 1.9732517269414305" fill="none" transform="matrix(1,0,0,1,0,0)" fill-rule="nonzero" stroke-dasharray="none" stroke-miterlimit="10" stroke-linejoin="miter" stroke-linecap="butt" stroke-width="0.028766805158407963" stroke="#444549"></path></g></g><g><path d=" M 0.796731 1.42344 L 0.171999 1.42344 Q 0.134436 1.42344 0.1176315 1.4066355000000001 Q 0.100827 1.389831 0.100827 1.352268 L 0.100827 1.120959 Q 0.100827 1.083396 0.1176315 1.0665915 Q 0.134436 1.049787 0.171999 1.049787 L 0.703812 1.049787 Q 0.729513 1.049787 0.7423635 1.0329825000000001 Q 0.755214 1.016178 0.755214 0.9924540000000001 Q 0.755214 0.9588450000000001 0.7423635 0.943029 Q 0.729513 0.9272130000000001 0.703812 0.9252360000000001 L 0.407262 0.883719 Q 0.268872 0.8639490000000001 0.1848495 0.7927770000000001 Q 0.100827 0.721605 0.100827 0.5555370000000001 L 0.100827 0.34795200000000004 Q 0.100827 0.17990700000000004 0.209562 0.08995350000000002 Q 0.318297 0 0.510066 0 L 1.063626 0 Q 1.101189 0 1.1179935 0.01680450000000011 Q 1.134798 0.033609 1.134798 0.07117200000000001 L 1.134798 0.306435 Q 1.134798 0.343998 1.1179935 0.3608024999999999 Q 1.101189 0.377607 1.063626 0.377607 L 0.602985 0.377607 Q 0.577284 0.377607 0.563445 0.3944114999999999 Q 0.549606 0.411216 0.549606 0.436917 Q 0.549606 0.462618 0.563445 0.48041100000000003 Q 0.577284 0.498204 0.602985 0.500181 L 0.897558 0.539721 Q 1.035948 0.5594910000000001 1.120959 0.630663 Q 1.20597 0.701835 1.20597 0.867903 L 1.20597 1.075488 Q 1.20597 1.243533 1.0962465000000001 1.3334865 Q 0.986523 1.42344 0.796731 1.42344 M 1.9495877366015626 1.42344 L 1.6431527366015626 1.42344 Q 1.6055897366015626 1.42344 1.5887852366015627 1.4066355000000001 Q 1.5719807366015628 1.389831 1.5719807366015628 1.352268 L 1.5719807366015628 0.07117200000000001 Q 1.5719807366015628 0.033609 1.5887852366015627 0.01680450000000011 Q 1.6055897366015626 0 1.6431527366015626 0 L 1.9495877366015626 0 Q 1.9871507366015626 0 2.0039552366015627 0.01680450000000011 Q 2.020759736601563 0.033609 2.020759736601563 0.07117200000000001 L 2.020759736601563 0.5258820000000001 L 2.0998397366015626 0.5258820000000001 L 2.3034707366015628 0.0652410000000001 Q 2.3173097366015627 0.029654999999999987 2.3410337366015628 0.014827499999999993 Q 2.364757736601563 0 2.4023207366015624 0 L 2.7067787366015628 0 Q 2.740387736601563 0 2.752249736601563 0.01680450000000011 Q 2.7641117366015626 0.033609 2.7502727366015627 0.0652410000000001 L 2.5486187366015627 0.5258820000000001 Q 2.6593307366015626 0.531813 2.725560236601563 0.6039735 Q 2.7917897366015625 0.676134 2.7917897366015625 0.7947540000000001 L 2.7917897366015625 1.352268 Q 2.7917897366015625 1.389831 2.7749852366015624 1.4066355000000001 Q 2.7581807366015627 1.42344 2.7206177366015627 1.42344 L 2.416159736601563 1.42344 Q 2.378596736601563 1.42344 2.3617922366015627 1.4066355000000001 Q 2.3449877366015626 1.389831 2.3449877366015626 1.352268 L 2.3449877366015626 0.966753 Q 2.3449877366015626 0.9351210000000001 2.3291717366015625 0.917328 Q 2.3133557366015625 0.8995350000000001 2.281723736601563 0.8995350000000001 L 2.020759736601563 0.8995350000000001 L 2.020759736601563 1.352268 Q 2.020759736601563 1.389831 2.0039552366015627 1.4066355000000001 Q 1.9871507366015626 1.42344 1.9495877366015626 1.42344 M 3.23677621734375 1.42344 Q 3.1992132173437504 1.42344 3.1824087173437503 1.4066355000000001 Q 3.16560421734375 1.389831 3.16560421734375 1.352268 L 3.16560421734375 1.117005 Q 3.16560421734375 1.079442 3.1824087173437503 1.0626375000000001 Q 3.1992132173437504 1.045833 3.23677621734375 1.045833 L 3.43249921734375 1.045833 L 3.43249921734375 0.38156100000000004 L 3.23677621734375 0.38156100000000004 Q 3.1992132173437504 0.38156100000000004 3.1824087173437503 0.36475649999999993 Q 3.16560421734375 0.34795200000000004 3.16560421734375 0.310389 L 3.16560421734375 0.07117200000000001 Q 3.16560421734375 0.033609 3.1824087173437503 0.01680450000000011 Q 3.1992132173437504 0 3.23677621734375 0 L 4.07897821734375 0 Q 4.11654121734375 0 4.13334571734375 0.01680450000000011 Q 4.15015021734375 0.033609 4.15015021734375 0.07117200000000001 L 4.15015021734375 0.310389 Q 4.15015021734375 0.34795200000000004 4.13334571734375 0.36475649999999993 Q 4.11654121734375 0.38156100000000004 4.07897821734375 0.38156100000000004 L 3.8872092173437505 0.38156100000000004 L 3.8872092173437505 1.045833 L 4.07897821734375 1.045833 Q 4.11654121734375 1.045833 4.13334571734375 1.0626375000000001 Q 4.15015021734375 1.079442 4.15015021734375 1.117005 L 4.15015021734375 1.352268 Q 4.15015021734375 1.389831 4.13334571734375 1.4066355000000001 Q 4.11654121734375 1.42344 4.07897821734375 1.42344 L 3.23677621734375 1.42344 M 5.621217074062501 1.42344 L 4.6149240740625 1.42344 Q 4.577361074062501 1.42344 4.560556574062501 1.4066355000000001 Q 4.543752074062501 1.389831 4.543752074062501 1.352268 L 4.543752074062501 0.07117200000000001 Q 4.543752074062501 0.033609 4.560556574062501 0.01680450000000011 Q 4.577361074062501 0 4.6149240740625 0 L 4.921359074062501 0 Q 4.9589220740625 0 4.9757265740625005 0.01680450000000011 Q 4.992531074062501 0.033609 4.992531074062501 0.07117200000000001 L 4.992531074062501 1.049787 L 5.263380074062501 1.049787 L 5.263380074062501 0.7295130000000001 Q 5.263380074062501 0.6919500000000001 5.280184574062501 0.6751455000000001 Q 5.2969890740625 0.6583410000000001 5.3345520740625005 0.6583410000000001 L 5.621217074062501 0.6583410000000001 Q 5.6587800740625 0.6583410000000001 5.6755845740625 0.6751455000000001 Q 5.6923890740625005 0.6919500000000001 5.6923890740625005 0.7295130000000001 L 5.6923890740625005 1.352268 Q 5.6923890740625005 1.389831 5.6755845740625 1.4066355000000001 Q 5.6587800740625 1.42344 5.621217074062501 1.42344 M 7.14571602404297 1.42344 L 6.139423024042969 1.42344 Q 6.10186002404297 1.42344 6.08505552404297 1.4066355000000001 Q 6.0682510240429695 1.389831 6.0682510240429695 1.352268 L 6.0682510240429695 0.07117200000000001 Q 6.0682510240429695 0.033609 6.08505552404297 0.01680450000000011 Q 6.10186002404297 0 6.139423024042969 0 L 6.44585802404297 0 Q 6.483421024042969 0 6.500225524042969 0.01680450000000011 Q 6.5170300240429695 0.033609 6.5170300240429695 0.07117200000000001 L 6.5170300240429695 1.049787 L 6.78787902404297 1.049787 L 6.78787902404297 0.7295130000000001 Q 6.78787902404297 0.6919500000000001 6.80468352404297 0.6751455000000001 Q 6.821488024042969 0.6583410000000001 6.859051024042969 0.6583410000000001 L 7.14571602404297 0.6583410000000001 Q 7.183279024042969 0.6583410000000001 7.200083524042969 0.6751455000000001 Q 7.216888024042969 0.6919500000000001 7.216888024042969 0.7295130000000001 L 7.216888024042969 1.352268 Q 7.216888024042969 1.389831 7.200083524042969 1.4066355000000001 Q 7.183279024042969 1.42344 7.14571602404297 1.42344" fill="#006fbf" fill-rule="nonzero"></path></g><g><path d=" M 0.7134872727272727 2.157148881818182 Q 0.7889841818181819 2.179549063636364 0.8238289090909091 2.213978972727273 Q 0.8586736363636364 2.248408881818182 0.8586736363636364 2.3015056090909094 Q 0.8586736363636364 2.3753432454545456 0.7877397272727273 2.417239881818182 Q 0.7168058181818182 2.4591365181818183 0.5923603636363637 2.4591365181818183 Q 0.4903150909090909 2.4591365181818183 0.38868463636363637 2.428854790909091 Q 0.2870541818181818 2.398573063636364 0.20160163636363637 2.3454763363636366 L 0.20160163636363637 2.4475216090909093 L 0.10204527272727273 2.4475216090909093 L 0.10204527272727273 2.238453245454546 L 0.16841618181818183 2.225179063636364 Q 0.25055018181818184 2.295698154545455 0.36255109090909093 2.334691063636364 Q 0.47455200000000003 2.373683972727273 0.5923603636363637 2.373683972727273 Q 0.6645387272727273 2.373683972727273 0.7047760909090909 2.355017154545455 Q 0.7450134545454545 2.3363503363636364 0.7450134545454545 2.3015056090909094 Q 0.7450134545454545 2.2766165181818185 0.7184650909090909 2.262097881818182 Q 0.6919167272727273 2.2475792454545456 0.629694 2.236793972727273 Q 0.5674712727272727 2.2260087000000004 0.43638872727272726 2.2102456090909093 Q 0.31443218181818183 2.196141790909091 0.24225381818181818 2.1741564272727274 Q 0.17007545454545456 2.152171063636364 0.1373048181818182 2.1177411545454548 Q 0.10453418181818182 2.0833112454545457 0.10453418181818182 2.0310441545454547 Q 0.10453418181818182 1.9538879727272729 0.17754218181818182 1.910746881818182 Q 0.25055018181818184 1.867605790909091 0.3841216363636364 1.867605790909091 Q 0.47870018181818186 1.867605790909091 0.5645675454545455 1.894568972727273 Q 0.6504349090909091 1.9215321545454547 0.7217836363636364 1.9704807000000002 L 0.7217836363636364 1.8783910636363639 L 0.8196807272727273 1.8783910636363639 L 0.8196807272727273 2.0833112454545457 L 0.7566283636363637 2.095755790909091 Q 0.6910870909090909 2.0277256090909095 0.5956789090909091 1.9912216090909092 Q 0.5002707272727273 1.9547176090909093 0.383292 1.9547176090909093 Q 0.3086247272727273 1.9547176090909093 0.26382436363636363 1.9754585181818185 Q 0.219024 1.9961994272727275 0.219024 2.0310441545454547 Q 0.219024 2.055103609090909 0.2439130909090909 2.0696222454545454 Q 0.26880218181818183 2.084140881818182 0.32770636363636363 2.0949261545454547 Q 0.3866105454545455 2.1057114272727273 0.5085670909090909 2.1198152454545456 Q 0.6379903636363636 2.1347487000000003 0.7134872727272727 2.157148881818182 M 1.454770604403409 2.228497609090909 L 1.454770604403409 2.3604097909090913 L 1.628164604403409 2.3604097909090913 L 1.628164604403409 2.4475216090909093 L 1.1718646044034091 2.4475216090909093 L 1.1718646044034091 2.3604097909090913 L 1.3444289680397727 2.3604097909090913 L 1.3444289680397727 2.2326457909090913 L 1.0565451498579546 1.9655028818181821 L 0.9246329680397727 1.9655028818181821 L 0.9246329680397727 1.8783910636363639 L 1.2913322407670456 1.8783910636363639 L 1.2913322407670456 1.9655028818181821 L 1.1975833316761364 1.9655028818181821 L 1.4099702407670454 2.1687637909090913 L 1.6148904225852272 1.9655028818181821 L 1.5070376953125 1.9655028818181821 L 1.5070376953125 1.8783910636363639 L 1.8729073316761364 1.8783910636363639 L 1.8729073316761364 1.9655028818181821 L 1.7285506044034091 1.9655028818181821 L 1.454770604403409 2.228497609090909 M 3.079630031516335 1.9655028818181821 L 2.9037471224254263 1.9655028818181821 L 2.9037471224254263 2.4524994272727274 L 2.8473318496981537 2.453329063636364 L 2.2151489406072447 2.013621790909091 L 2.2151489406072447 2.3604097909090913 L 2.4026467587890625 2.3604097909090913 L 2.4026467587890625 2.4475216090909093 L 1.9330725769708808 2.4475216090909093 L 1.9330725769708808 2.3604097909090913 L 2.10895548606179 2.3604097909090913 L 2.10895548606179 1.9655028818181821 L 1.9330725769708808 1.9655028818181821 L 1.9330725769708808 1.8783910636363639 L 2.2151489406072447 1.8783910636363639 L 2.80253148606179 2.290720336363637 L 2.80253148606179 1.9655028818181821 L 2.627478213334517 1.9655028818181821 L 2.627478213334517 1.8783910636363639 L 3.079630031516335 1.8783910636363639 L 3.079630031516335 1.9655028818181821 M 4.157766791814631 2.3604097909090913 L 4.157766791814631 2.4475216090909093 L 3.756222791814631 2.4475216090909093 L 3.756222791814631 2.3604097909090913 L 3.8781793372691764 2.3604097909090913 L 3.8010231554509946 2.2508977909090913 L 3.396160609996449 2.2508977909090913 L 3.3181747918146307 2.3604097909090913 L 3.440131337269176 2.3604097909090913 L 3.440131337269176 2.4475216090909093 L 3.03775770090554 2.4475216090909093 L 3.03775770090554 2.3604097909090913 L 3.197877519087358 2.3604097909090913 L 3.495716973632813 1.9646732454545457 L 3.3687826099964493 1.9646732454545457 L 3.3687826099964493 1.8783910636363639 L 3.826741882723722 1.8783910636363639 L 3.826741882723722 1.9646732454545457 L 3.7006371554509947 1.9646732454545457 L 3.9993062463600855 2.3604097909090913 L 4.157766791814631 2.3604097909090913 M 3.7470967918146307 2.1737416090909094 L 3.6002511554509944 1.9646732454545457 L 3.5977622463600856 1.9646732454545457 L 3.450086973632813 2.1737416090909094 L 3.7470967918146307 2.1737416090909094 M 4.982407107954546 1.8999616090909093 Q 5.036748289772728 1.9215321545454547 5.067444835227273 1.963013972727273 Q 5.0981413806818185 2.004495790909091 5.0981413806818185 2.0617407 Q 5.0981413806818185 2.1173263363636368 5.067444835227273 2.1592229727272727 Q 5.036748289772728 2.2011196090909095 4.9819922897727285 2.223519790909091 Q 4.927236289772728 2.2459199727272727 4.85837647159091 2.2459199727272727 L 4.457662107954546 2.2459199727272727 L 4.457662107954546 2.3604097909090913 L 4.644330289772728 2.3604097909090913 L 4.644330289772728 2.4475216090909093 L 4.1714375625 2.4475216090909093 L 4.1714375625 2.3604097909090913 L 4.34732047159091 2.3604097909090913 L 4.34732047159091 1.9655028818181821 L 4.1714375625 1.9655028818181821 L 4.1714375625 1.8783910636363639 L 4.85837647159091 1.8783910636363639 Q 4.928065926136364 1.8783910636363639 4.982407107954546 1.8999616090909093 M 4.94963647159091 2.1347487000000003 Q 4.985310835227273 2.1082003363636366 4.985310835227273 2.063399972727273 Q 4.985310835227273 2.0169403363636365 4.950051289772728 1.9912216090909092 Q 4.914791744318182 1.9655028818181821 4.8558875625 1.9655028818181821 L 4.457662107954546 1.9655028818181821 L 4.457662107954546 2.161297063636364 L 4.8558875625 2.161297063636364 Q 4.913962107954546 2.161297063636364 4.94963647159091 2.1347487000000003 M 5.848527216796875 2.157148881818182 Q 5.924024125887785 2.179549063636364 5.958868853160512 2.213978972727273 Q 5.993713580433239 2.248408881818182 5.993713580433239 2.3015056090909094 Q 5.993713580433239 2.3753432454545456 5.92277967134233 2.417239881818182 Q 5.851845762251421 2.4591365181818183 5.727400307705967 2.4591365181818183 Q 5.625355034978694 2.4591365181818183 5.523724580433239 2.428854790909091 Q 5.422094125887785 2.398573063636364 5.336641580433239 2.3454763363636366 L 5.336641580433239 2.4475216090909093 L 5.237085216796876 2.4475216090909093 L 5.237085216796876 2.238453245454546 L 5.303456125887784 2.225179063636364 Q 5.385590125887784 2.295698154545455 5.497591034978694 2.334691063636364 Q 5.609591944069603 2.373683972727273 5.727400307705967 2.373683972727273 Q 5.7995786713423305 2.373683972727273 5.839816034978694 2.355017154545455 Q 5.880053398615058 2.3363503363636364 5.880053398615058 2.3015056090909094 Q 5.880053398615058 2.2766165181818185 5.853505034978694 2.262097881818182 Q 5.82695667134233 2.2475792454545456 5.764733944069603 2.236793972727273 Q 5.702511216796876 2.2260087000000004 5.57142867134233 2.2102456090909093 Q 5.449472125887785 2.196141790909091 5.377293762251421 2.1741564272727274 Q 5.305115398615057 2.152171063636364 5.2723447622514215 2.1177411545454548 Q 5.239574125887785 2.0833112454545457 5.239574125887785 2.0310441545454547 Q 5.239574125887785 1.9538879727272729 5.312582125887785 1.910746881818182 Q 5.385590125887784 1.867605790909091 5.51916158043324 1.867605790909091 Q 5.613740125887785 1.867605790909091 5.699607489524149 1.894568972727273 Q 5.785474853160512 1.9215321545454547 5.85682358043324 1.9704807000000002 L 5.85682358043324 1.8783910636363639 L 5.95472067134233 1.8783910636363639 L 5.95472067134233 2.0833112454545457 L 5.891668307705967 2.095755790909091 Q 5.826127034978693 2.0277256090909095 5.730718853160512 1.9912216090909092 Q 5.63531067134233 1.9547176090909093 5.518331944069603 1.9547176090909093 Q 5.44366467134233 1.9547176090909093 5.398864307705966 1.9754585181818185 Q 5.354063944069603 1.9961994272727275 5.354063944069603 2.0310441545454547 Q 5.354063944069603 2.055103609090909 5.378953034978694 2.0696222454545454 Q 5.403842125887785 2.084140881818182 5.462746307705967 2.0949261545454547 Q 5.5216504895241485 2.1057114272727273 5.643607034978694 2.1198152454545456 Q 5.773030307705967 2.1347487000000003 5.848527216796875 2.157148881818182 M 6.922491084428268 2.1015632454545456 L 6.922491084428268 1.9655028818181821 L 6.396501629882813 1.9655028818181821 L 6.396501629882813 2.1239634272727272 L 6.644562902610086 2.1239634272727272 L 6.644562902610086 2.0443183363636366 L 6.73250435715554 2.0443183363636366 L 6.73250435715554 2.2857425181818183 L 6.644562902610086 2.2857425181818183 L 6.644562902610086 2.2060974272727276 L 6.396501629882813 2.2060974272727276 L 6.396501629882813 2.3604097909090913 L 6.922491084428268 2.3604097909090913 L 6.922491084428268 2.2243494272727276 L 7.0203881753373585 2.2243494272727276 L 7.0203881753373585 2.4475216090909093 L 6.112765993519177 2.4475216090909093 L 6.112765993519177 2.3604097909090913 L 6.28781926624645 2.3604097909090913 L 6.28781926624645 1.9655028818181821 L 6.112765993519177 1.9655028818181821 L 6.112765993519177 1.8783910636363639 L 7.0203881753373585 1.8783910636363639 L 7.0203881753373585 2.1015632454545456 L 6.922491084428268 2.1015632454545456" fill="#002540" fill-rule="nonzero"></path></g></g><defs><clipPath id="SvgjsClipPath93268"><path d=" M -3.756647865993366 -0.5220591341711449 h 3.491647865993366 v 3.491639877433199 h -3.491647865993366 Z"></path></clipPath><clipPath id="b6b6453b3-675f-4837-96e6-e3bafea4061c6ad240d8-50db-471b-8ef0-eab903184aba"><path d=" M -3.756647865993366 2.9695807432620542 L -0.2650000000000001 2.9695807432620542 L -0.2650000000000001 -0.5220671227313114 L -3.756647865993366 -0.5220671227313114 Z"></path></clipPath><clipPath id="SvgjsClipPath932636ad240d8-50db-471b-8ef0-eab903184aba"><path d=" M -3.756647865993366 -0.5220591341711449 L -0.2650000000000001 -0.5220591341711449 L -0.2650000000000001 2.9695807432620542 L -3.756647865993366 2.9695807432620542 Z"></path></clipPath></defs></svg>